<svg xmlns="http://www.w3.org/2000/svg" width="960" height="707.307" viewBox="0 0 960 707.307" xmlns:xlink="http://www.w3.org/1999/xlink" role="img" artist="Katerina Limpitsouni" source="https://undraw.co/"><g transform="translate(-417.096 -139.999)"><rect width="403.523" height="11.837" transform="translate(973.573 401.906)" fill="#e6e6e6"/><rect width="102.226" height="102.226" transform="translate(1006.931 302.908)" fill="#e6e6e6"/><rect width="61.336" height="61.336" transform="translate(1027.376 323.352)" fill="#ccc"/><rect width="25.825" height="102.226" transform="translate(1236.132 302.908)" fill="#e6e6e6"/><rect width="25.825" height="11.837" transform="translate(1236.132 319.047)" fill="#ccc"/><rect width="25.825" height="11.837" transform="translate(1236.132 370.7)" fill="#ccc"/><rect width="25.825" height="102.226" transform="translate(1196.318 302.908)" fill="#e6e6e6"/><rect width="25.825" height="11.837" transform="translate(1196.318 319.047)" fill="#ccc"/><rect width="25.825" height="11.837" transform="translate(1196.318 370.7)" fill="#ccc"/><rect width="25.825" height="102.226" transform="matrix(0.896, -0.444, 0.444, 0.896, 1261.065, 313.945)" fill="#e6e6e6"/><rect width="25.825" height="11.837" transform="matrix(0.896, -0.444, 0.444, 0.896, 1268.226, 328.409)" fill="#ccc"/><rect width="25.825" height="11.837" transform="matrix(0.896, -0.444, 0.444, 0.896, 1291.143, 374.698)" fill="#ccc"/><path d="M528.968,170.382l13.006,22.526,13.005,22.526H502.958l13.005-22.526Z" transform="translate(516.162 173.56)" fill="#e6e6e6"/><path d="M547.847,173.978,560.852,196.5l13.006,22.526H521.837L534.842,196.5Z" transform="translate(519.881 174.27)" fill="#e6e6e6"/><circle cx="7.532" cy="7.532" r="7.532" transform="translate(1069.342 326.582)" fill="#e6e6e6"/><rect width="403.523" height="11.837" transform="translate(1377.096 251.256) rotate(180)" fill="#e6e6e6"/><rect width="102.226" height="102.226" transform="translate(1343.738 242.648) rotate(180)" fill="#e6e6e6"/><rect width="61.336" height="61.336" transform="translate(1323.293 222.204) rotate(180)" fill="#ccc"/><rect width="25.825" height="102.226" transform="translate(1114.537 242.648) rotate(180)" fill="#e6e6e6"/><rect width="25.825" height="11.837" transform="translate(1114.537 168.401) rotate(180)" fill="#ccc"/><rect width="25.825" height="11.837" transform="translate(1114.537 220.05) rotate(180)" fill="#ccc"/><rect width="25.825" height="102.226" transform="translate(1154.351 242.648) rotate(180)" fill="#e6e6e6"/><rect width="25.825" height="11.837" transform="translate(1154.351 168.401) rotate(180)" fill="#ccc"/><rect width="25.825" height="11.837" transform="translate(1154.351 220.05) rotate(180)" fill="#ccc"/><rect width="25.825" height="102.226" transform="matrix(-0.896, -0.444, 0.444, -0.896, 1044.247, 243.071)" fill="#e6e6e6"/><rect width="25.825" height="11.837" transform="matrix(-0.896, -0.444, 0.444, -0.896, 1077.19, 176.533)" fill="#ccc"/><rect width="25.825" height="11.837" transform="matrix(-0.896, -0.444, 0.444, -0.896, 1054.273, 222.822)" fill="#ccc"/><path d="M746.524,34.634,733.519,57.16,720.514,79.685h52.021L759.529,57.16Z" transform="translate(559.014 146.823)" fill="#e6e6e6"/><path d="M727.645,38.23,714.64,60.756,701.635,83.281h52.021L740.651,60.756Z" transform="translate(555.295 147.53)" fill="#e6e6e6"/><circle cx="7.532" cy="7.532" r="7.532" transform="translate(1266.261 164.098)" fill="#e6e6e6"/><rect width="403.523" height="11.837" transform="translate(1377.096 576.229) rotate(180)" fill="#e6e6e6"/><rect width="102.226" height="102.226" transform="translate(1343.738 567.62) rotate(180)" fill="#e6e6e6"/><rect width="61.336" height="61.336" transform="translate(1323.293 547.173) rotate(180)" fill="#ccc"/><rect width="25.825" height="102.226" transform="translate(1114.537 567.62) rotate(180)" fill="#e6e6e6"/><rect width="25.825" height="11.837" transform="translate(1114.537 493.37) rotate(180)" fill="#ccc"/><rect width="25.825" height="11.837" transform="translate(1114.537 545.023) rotate(180)" fill="#ccc"/><rect width="25.825" height="102.226" transform="translate(1154.351 567.62) rotate(180)" fill="#e6e6e6"/><rect width="25.825" height="11.837" transform="translate(1154.351 493.37) rotate(180)" fill="#ccc"/><rect width="25.825" height="11.837" transform="translate(1154.351 545.023) rotate(180)" fill="#ccc"/><rect width="25.825" height="102.226" transform="matrix(-0.896, -0.444, 0.444, -0.896, 1044.247, 568.043)" fill="#e6e6e6"/><rect width="25.825" height="11.837" transform="matrix(-0.896, -0.444, 0.444, -0.896, 1077.19, 501.504)" fill="#ccc"/><rect width="25.825" height="11.837" transform="matrix(-0.896, -0.444, 0.444, -0.896, 1054.273, 547.791)" fill="#ccc"/><path d="M746.524,306.129l-13.005,22.526-13.005,22.527h52.021l-13.006-22.527Z" transform="translate(559.014 200.298)" fill="#e6e6e6"/><path d="M727.645,309.725,714.64,332.251l-13.005,22.527h52.021l-13.005-22.527Z" transform="translate(555.295 201.007)" fill="#e6e6e6"/><circle cx="7.532" cy="7.532" r="7.532" transform="translate(1266.261 489.067)" fill="#e6e6e6"/><ellipse cx="475.351" cy="33.761" rx="475.351" ry="33.761" transform="translate(417.096 779.785)" fill="#e6e6e6"/><path d="M924.763,734.335c-65.842-11.012-220.434-7.412-220.434-7.412s71.2-47.2,36.776-74.511c67.147,13.017,76.552,11.7,151.248,0-7.866,12.4-22.25,4.723,9.067,32.622S915.3,719.425,924.763,734.335Z" transform="translate(320.145 83.522)" fill="#3f3d56"/><path d="M0,59.423H39.163l12.351,2.058q-.2-2.354-.2-4.757A56.714,56.714,0,1,1,72.2,100.691l-31.69,19.5Z" transform="translate(1021.413 638.66)" fill="#ed9da0"/><path d="M566.523,445.919s-137.744,14.855-162.051,12.154-35.111-5.4-35.111-5.4-16.205,21.607-8.1,31.06a58.437,58.437,0,0,0,16.205,13.5s14.855-4.051,25.658,0,120.188,21.607,139.094,5.4S566.523,445.919,566.523,445.919Z" transform="translate(249.625 42.85)" fill="#e6e6e6"/><path d="M573.6,738.818s-90.479-25.658-106.684-139.094v-10.8s-17.9,31.406-24.308,37.812c-7.427,7.427-33.761,74.274-32.41,81.026s0,9.453,0,9.453l-39.162-4.051V701.006s20.932-62.8,22.282-77.65,51.991-118.163,51.991-118.163,18.906-39.162,51.316,0,35.111,66.171,35.111,66.171L573.6,652.39Z" transform="translate(251.998 51.097)" fill="#e6e6e6"/><path d="M383.5,452.792l-43.214-14.855s-40.513-29.709-31.06,0,52.667,94.53,64.821,87.778,26.771-23.512,23.514-25.936S372.692,479.8,383.5,452.792Z" transform="translate(239.541 38.677)" fill="#2f2e41"/><path d="M385.387,659.259,350.5,676.3s-42.185,6.49-18.659,18.659,88.427,25.149,91.672,13.792,1.958-30.207-1.455-29.706S395.122,681.974,385.387,659.259Z" transform="translate(242.873 84.871)" fill="#2f2e41"/><path d="M526.451,629.047s-17.556,75.624,12.154,91.829,237.676,18.906,253.881-10.8,8.1-29.709,8.1-29.709l-43.214-48.615,35.111-2.7s0-10.8-12.154-12.154-49.966-14.855-82.376-5.4-51.316-18.906-51.316-18.906Z" transform="translate(281.594 71.738)" fill="#6c63ff"/><path d="M311.215,272.18,288.257,397.771l158-18.906,28.359-113.436Z" transform="translate(473.873 192.282)" fill="#3f3d56"/><path d="M314.5,276.129,295.591,388.214l143.82-16.88,27.683-101.958Z" transform="translate(475.318 193.059)" fill="#fff"/><path d="M294.1,377.343l-5.4-1.35-2.7,5.4,43.214,120.189,4.064-1.554,1.337-7.9Z" transform="translate(473.429 214.059)" fill="#b3b3b3"/><path d="M288.257,377.753l43.214,125.591,163.4-24.308L446.258,360.2Z" transform="translate(473.873 210.949)" fill="#d0cde1"/><path d="M306.309,373.7v6.752L426.5,366.95l-1.35-6.752Z" transform="translate(477.429 210.949)" fill="#3f3d56"/><path d="M308.565,384.762l18.906,52.667L450.36,422.574l-21.606-49.966Z" transform="translate(477.873 213.393)" fill="#3f3d56"/><path d="M645.144,608.479l-4.051-10.8s-31.06-54.017-47.265-43.214,33.761,63.47,33.761,63.47h16.205Z" transform="translate(295.243 63.948)" fill="#ed9da0"/><path d="M551.6,616.586l-4.051-16.205s-10.8-49.966,8.1-47.265,24.308,49.966,24.308,49.966l-1.351,10.8Z" transform="translate(286.159 63.942)" fill="#ed9da0"/><path d="M583.739,600.774s-35.111-5.4-36.462,2.7-8.1,129.641,25.658,133.692S774.15,758.774,756.594,716.91s-44.564-36.461-44.564-36.461L597.244,692.6Z" transform="translate(286.425 73.004)" fill="#6c63ff"/><path d="M476.856,463.027,441.07,438.044l-23.633,18.231,29.71,32.41Z" transform="translate(499.317 226.281)" fill="#6c63ff"/><path d="M386.976,479.224l5.4,51.316,93.18-5.4-81.026-1.35Z" transform="translate(493.318 234.392)" opacity="0.2"/><path d="M328.378,313.409c2.271.194,83.727-2.915,83.727-2.915s8.663-28.286,8.1-30.846-86.427,2.608-86.427,2.608S326.107,313.214,328.378,313.409Z" transform="translate(486.481 194.293)" fill="#6c63ff"/><path d="M328.378,313.409c2.271.194,83.727-2.915,83.727-2.915s8.663-28.286,8.1-30.846-86.427,2.608-86.427,2.608S326.107,313.214,328.378,313.409Z" transform="translate(480.087 233.754)" fill="#6c63ff"/><path d="M329.642,304.146c2.271.087,82.834-9.522,82.834-9.522s5.025-14.853,4.464-16-83.393,1.9-83.393,1.9S327.371,304.059,329.642,304.146Z" transform="translate(475.17 273.186)" fill="#6c63ff"/><path d="M1.772,119.319c-8.281-11.044,15.151-58.658,15.151-73.837C16.923,8.194,24.794,0,62.084,0a67.528,67.528,0,0,1,67.193,60.82l.329,0a35.082,35.082,0,1,1-25.289,59.391,67.228,67.228,0,0,1-42.233,14.834c-2.228,0-4.494.008-6.778.008C34.922,135.051,13,134.3,1.772,119.319Z" transform="translate(1087.877 627.878)" fill="#090814"/></g></svg>